<svg width="390" height="242" viewBox="0 0 390 242" fill="none" xmlns="http://www.w3.org/2000/svg">
<path d="M226.143 88.4511C212.956 76.0103 205.933 68.002 189.972 58.7037C169.373 46.7038 145.558 39.6153 121.78 38.4439C91.4909 36.9518 63.2093 49.6983 52.106 79.5566C48.3987 89.526 45.952 107.573 46.6705 118.198C48.2628 141.747 59.606 159.83 77.8014 174.531C112.36 202.452 156.492 219.162 199.064 230.072C232.452 238.629 269.065 243.751 303.328 237.287C332.993 231.69 365.817 213.366 379.821 185.402C395.745 153.604 386.082 119.306 363.07 94.0843C348.952 78.6121 336.951 70.1007 318.251 59.692C277.438 36.9751 231.69 21.5901 186.216 11.4637C148.457 3.05536 109.545 -0.889584 71.0811 4.3975C62.1941 5.61908 53.3603 7.36851 44.6939 9.68483C14.0217 17.8828 31.0104 16.1322 2 26.1892" stroke="#CDDE00" stroke-width="3" stroke-linecap="round"/>
</svg>
