<svg width="30" height="30" viewBox="0 0 30 30" fill="none" xmlns="http://www.w3.org/2000/svg">
<path d="M14.7331 10.0136C12.0498 10.0136 9.85994 12.2034 9.85994 14.8868C9.85994 17.5702 12.0498 19.76 14.7331 19.76C17.4165 19.76 19.6063 17.5702 19.6063 14.8868C19.6063 12.2034 17.4165 10.0136 14.7331 10.0136ZM29.3491 14.8868C29.3491 12.8688 29.3674 10.869 29.254 8.85469C29.1407 6.51497 28.607 4.43847 26.896 2.72755C25.1815 1.01297 23.1086 0.482876 20.7689 0.369546C18.7509 0.256215 16.7511 0.274494 14.7368 0.274494C12.7188 0.274494 10.7191 0.256215 8.7047 0.369546C6.36498 0.482876 4.28847 1.01662 2.57755 2.72755C0.862975 4.44212 0.332882 6.51497 0.219552 8.85469C0.106221 10.8727 0.1245 12.8724 0.1245 14.8868C0.1245 16.9011 0.106221 18.9045 0.219552 20.9189C0.332882 23.2586 0.866631 25.3351 2.57755 27.046C4.29213 28.7606 6.36498 29.2907 8.7047 29.404C10.7227 29.5174 12.7224 29.4991 14.7368 29.4991C16.7548 29.4991 18.7545 29.5174 20.7689 29.404C23.1086 29.2907 25.1851 28.7569 26.896 27.046C28.6106 25.3314 29.1407 23.2586 29.254 20.9189C29.371 18.9045 29.3491 16.9048 29.3491 14.8868ZM14.7331 22.3849C10.5838 22.3849 7.23506 19.0361 7.23506 14.8868C7.23506 10.7374 10.5838 7.38871 14.7331 7.38871C18.8825 7.38871 22.2312 10.7374 22.2312 14.8868C22.2312 19.0361 18.8825 22.3849 14.7331 22.3849ZM22.5383 8.83276C21.5695 8.83276 20.7872 8.05041 20.7872 7.08162C20.7872 6.11283 21.5695 5.33049 22.5383 5.33049C23.5071 5.33049 24.2894 6.11283 24.2894 7.08162C24.2897 7.31167 24.2446 7.53951 24.1567 7.75209C24.0688 7.96468 23.9399 8.15784 23.7772 8.32051C23.6145 8.48317 23.4214 8.61215 23.2088 8.70005C22.9962 8.78795 22.7683 8.83305 22.5383 8.83276Z" fill="#CDDE00"/>
</svg>
