<svg width="30" height="30" viewBox="0 0 30 30" fill="none" xmlns="http://www.w3.org/2000/svg">
<path fill-rule="evenodd" clip-rule="evenodd" d="M8.03137 0.0463867C3.61309 0.0463867 0.0313721 3.62812 0.0313721 8.04639V21.2735C0.0313721 25.6917 3.6131 29.2735 8.03138 29.2735H21.2585C25.6767 29.2735 29.2585 25.6917 29.2585 21.2735V8.04639C29.2585 3.62811 25.6767 0.0463867 21.2584 0.0463867H8.03137ZM14.7827 3.38852C14.8276 3.32 14.9295 3.22424 15.009 3.17573C15.1466 3.09182 15.2512 3.08752 17.1721 3.08739C19.1906 3.08721 19.1906 3.08721 19.3402 3.18903C19.6187 3.37852 19.6623 3.48088 19.7045 4.04328C19.8265 5.67053 20.724 7.00598 22.1649 7.70405C22.7126 7.96938 23.2046 8.09995 23.8456 8.14995C24.3678 8.19073 24.4805 8.2411 24.6686 8.51743C24.6783 8.53167 24.6871 8.54456 24.695 8.55795C24.7704 8.68514 24.7704 8.85708 24.7697 10.6629C24.7689 12.6449 24.7683 12.66 24.6679 12.8351C24.5171 13.098 24.3275 13.1793 23.8661 13.1789C22.7296 13.1778 21.2401 12.8367 20.1367 12.3249C19.9155 12.2223 19.7271 12.1383 19.7181 12.1383C19.7091 12.1383 19.7015 13.6199 19.7011 15.4307C19.7004 18.8235 19.6757 19.4858 19.5225 20.2192C18.9707 22.8618 16.9729 25.0884 14.4295 25.8955C13.4937 26.1925 13.2176 26.2324 12.0989 26.2324C11.2094 26.2324 11.0205 26.2194 10.6054 26.1296C7.53574 25.465 5.29187 23.2213 4.62404 20.1486C4.5343 19.7356 4.52063 19.5431 4.51981 18.6778C4.51895 17.8066 4.53185 17.6215 4.62313 17.1968C5.13724 14.804 6.66022 12.8441 8.79647 11.826C9.69615 11.3972 10.5068 11.1813 11.5451 11.0938C12.1346 11.0441 12.1492 11.0451 12.3574 11.1495C12.4607 11.2014 12.5372 11.2327 12.5939 11.2852C12.7666 11.4451 12.7568 11.8018 12.7673 13.5332C12.7788 15.4357 12.7745 15.5645 12.6948 15.7135C12.5669 15.9527 12.3702 16.0642 12.0181 16.0972C11.2386 16.1703 10.7436 16.3876 10.2655 16.8665C8.65125 18.4833 9.80522 21.2296 12.1007 21.234C12.7878 21.2354 13.393 20.9827 13.8866 20.4885C14.2174 20.1572 14.4346 19.7937 14.5765 19.3336C14.6468 19.1054 14.6551 18.4467 14.6771 11.2991C14.6999 3.89362 14.705 3.50704 14.7827 3.38852Z" fill="
#CDDE00"/>
</svg>

