<svg width="30" height="30" viewBox="0 0 30 30" fill="none" xmlns="http://www.w3.org/2000/svg">
<path fill-rule="evenodd" clip-rule="evenodd" d="M6.61874 0.726959C4.8962 0.726959 3.24421 1.41123 2.02619 2.62925C0.808176 3.84727 0.123901 5.49926 0.123901 7.2218V23.4589C0.123901 25.1814 0.808176 26.8334 2.02619 28.0514C3.24421 29.2694 4.8962 29.9537 6.61874 29.9537H22.8558C24.5784 29.9537 26.2304 29.2694 27.4484 28.0514C28.6664 26.8334 29.3507 25.1814 29.3507 23.4589V7.2218C29.3507 5.49926 28.6664 3.84727 27.4484 2.62925C26.2304 1.41123 24.5784 0.726959 22.8558 0.726959H6.61874ZM23.3949 12.1822C23.6339 11.8239 23.7208 11.3854 23.6364 10.963C23.5521 10.5407 23.3034 10.1691 22.9451 9.93014C22.5868 9.69114 22.1483 9.60426 21.7259 9.6886C21.3036 9.77295 20.932 10.0216 20.693 10.3799C20.1183 11.1431 19.5159 11.8737 18.8112 12.5232C17.9944 13.2766 17.168 13.8417 16.3626 14.1761L16.3496 11.0911C16.3031 10.6961 16.1132 10.332 15.816 10.0677C15.5188 9.80342 15.135 9.65741 14.7373 9.65736C13.8572 9.70769 13.1136 10.3572 13.1136 11.2811V18.3815C9.95059 17.5047 8.24245 14.4359 8.24245 11.2811C8.24245 10.8504 8.07138 10.4374 7.76687 10.1329C7.46237 9.82843 7.04937 9.65736 6.61874 9.65736C6.1881 9.65736 5.77511 9.82843 5.4706 10.1329C5.1661 10.4374 4.99503 10.8504 4.99503 11.2811C4.99503 17.1784 9.07054 21.8352 14.7373 21.8352C15.1679 21.8352 15.5809 21.6641 15.8854 21.3596C16.1899 21.0551 16.361 20.6421 16.361 20.2115V17.6736C18.5238 17.8457 20.6216 19.3736 21.4042 20.9373C21.4954 21.1347 21.6253 21.3118 21.7863 21.458C21.9472 21.6042 22.1359 21.7167 22.3411 21.7886C22.5463 21.8606 22.7638 21.8906 22.9809 21.8768C23.1979 21.8631 23.4099 21.8059 23.6044 21.7086C23.7989 21.6114 23.9719 21.4761 24.1131 21.3107C24.2543 21.1453 24.3608 20.9533 24.4264 20.7459C24.492 20.5386 24.5152 20.3202 24.4948 20.1037C24.4743 19.8872 24.4106 19.6771 24.3074 19.4857C23.5313 17.9318 22.0829 16.4786 20.3001 15.5303C20.5404 15.3338 20.7791 15.126 21.0145 14.9101C21.9091 14.0942 22.7077 13.179 23.3949 12.1822Z" fill="#CDDE00"/>
</svg>
