<svg width="30" height="30" viewBox="0 0 30 30" fill="none" xmlns="http://www.w3.org/2000/svg">
<path d="M12.3104 11.5972L18.5211 15.1266L12.3104 18.656V11.5972ZM29.3507 3.63161V26.5955C29.3507 28.3243 27.9481 29.7269 26.2192 29.7269H3.25534C1.52653 29.7269 0.123901 28.3243 0.123901 26.5955V3.63161C0.123901 1.90279 1.52653 0.500168 3.25534 0.500168H26.2192C27.9481 0.500168 29.3507 1.90279 29.3507 3.63161ZM26.6107 15.1331C26.6107 15.1331 26.6107 11.2449 26.1149 9.37911C25.8409 8.34834 25.0384 7.53938 24.0142 7.26538C22.1679 6.76305 14.7373 6.76305 14.7373 6.76305C14.7373 6.76305 7.30664 6.76305 5.4604 7.26538C4.43616 7.53938 3.63372 8.34834 3.35972 9.37911C2.86391 11.2384 2.86391 15.1331 2.86391 15.1331C2.86391 15.1331 2.86391 19.0213 3.35972 20.8871C3.63372 21.9179 4.43616 22.6942 5.4604 22.9683C7.30664 23.4641 14.7373 23.4641 14.7373 23.4641C14.7373 23.4641 22.1679 23.4641 24.0142 22.9617C25.0384 22.6877 25.8409 21.9114 26.1149 20.8806C26.6107 19.0213 26.6107 15.1331 26.6107 15.1331Z" fill="#CDDE00"/>
</svg>
